<?xml version="1.0" encoding="UTF-8" standalone="no"?> <!-- Created with Vectornator for iOS (http://vectornator.io/) --><!DOCTYPE svg PUBLIC "-//W3C//DTD SVG 1.1//EN" "http://www.w3.org/Graphics/SVG/1.1/DTD/svg11.dtd">
<svg height="100%" style="fill-rule:evenodd;clip-rule:evenodd;stroke-linecap:round;stroke-linejoin:round;" xmlns:xlink="http://www.w3.org/1999/xlink" xmlns="http://www.w3.org/2000/svg" xml:space="preserve" width="100%" xmlns:vectornator="http://vectornator.io" version="1.1" viewBox="0 0 1500 800">
<metadata>
<vectornator:setting key="DimensionsVisible" value="1"/>
<vectornator:setting key="SnapToGrid" value="0"/>
<vectornator:setting key="SnapToPoints" value="0"/>
<vectornator:setting key="GuidesVisible" value="1"/>
<vectornator:setting key="RulersVisible" value="1"/>
<vectornator:setting key="CMYKEnabledKey" value="0"/>
<vectornator:setting key="SnapToEdges" value="0"/>
<vectornator:setting key="DisplayWhiteBackground" value="1"/>
<vectornator:setting key="SnapToGuides" value="1"/>
<vectornator:setting key="GridSpacing" value="15"/>
<vectornator:setting key="Units" value="Pixels"/>
<vectornator:setting key="DynamicGuides" value="1"/>
<vectornator:setting key="New" value="1"/>
</metadata>
<defs>
<path d="M44.7316+0L1455.27+0C1479.97+0+1500+20.027+1500+44.7316L1500+755.268C1500+779.973+1479.97+800+1455.27+800L44.7316+800C20.027+800+0+779.973+0+755.268L0+44.7316C0+20.027+20.027+0+44.7316+0Z" id="Mask"/>
<linearGradient y1="400.094" id="LinearGradient" x1="0" y2="400.094" x2="1500" gradientUnits="userSpaceOnUse" gradientTransform="matrix(1 0 0 1 0 0)">
<stop stop-color="#f59494" offset="0.237395"/>
<stop stop-color="#fa84c6" offset="1"/>
</linearGradient>
<linearGradient y1="356.031" id="LinearGradient_2" x1="768.545" y2="356.029" x2="1261.09" gradientUnits="userSpaceOnUse" gradientTransform="matrix(1 0 0 1 44.095 62.6702)">
<stop stop-color="#f59494" offset="0.115546"/>
<stop stop-color="#aef0fe" offset="0.481092"/>
<stop stop-color="#ef87c2" offset="0.819328"/>
</linearGradient>
<linearGradient y1="545.719" id="LinearGradient_3" x1="514.75" y2="545.719" x2="1594.53" gradientUnits="userSpaceOnUse" gradientTransform="matrix(1 0 0 1 0 0)">
<stop stop-color="#5d7a7e" offset="0"/>
<stop stop-color="#bfbfbf" offset="0.953781"/>
</linearGradient>
<linearGradient y1="382.695" id="LinearGradient_4" x1="59.125" y2="382.695" x2="712.269" gradientUnits="userSpaceOnUse" gradientTransform="matrix(1 0 0 1 0 0)">
<stop stop-color="#1e9597" offset="0"/>
<stop stop-color="#0beef0" offset="0.737395"/>
</linearGradient>
<linearGradient y1="552.375" id="LinearGradient_5" x1="918.156" y2="552.375" x2="1039.69" gradientUnits="userSpaceOnUse" gradientTransform="matrix(0.199324 0 0 0.199324 736.004 254.859)">
<stop stop-color="#f59494" offset="0.115546"/>
<stop stop-color="#aef0fe" offset="0.481092"/>
<stop stop-color="#ef87c2" offset="0.819328"/>
</linearGradient>
</defs>
<g id="Ebene 1" vectornator:layerName="Ebene 1">
<g opacity="1" vectornator:mask="#Mask">
<clipPath id="ClipPath">
<use xlink:href="#Mask" fill="none" overflow="visible"/>
</clipPath>
<g clip-path="url(#ClipPath)">
<g opacity="1">
<g opacity="1">
<path vectornator:shadowColor="#000000" vectornator:shadowOpacity="0.333" vectornator:shadowRadius="10" d="M0+0L1500+0L1500+800.188L0+800.188L0+0Z" vectornator:shadowOffset="10" fill="url(#LinearGradient)" opacity="1" vectornator:shadowAngle="1.5708"/>
<path d="M812.64+418.701C812.64+282.689+922.9+172.43+1058.91+172.43C1194.92+172.43+1305.18+282.689+1305.18+418.701C1305.18+554.714+1194.92+664.973+1058.91+664.973C922.9+664.973+812.64+554.714+812.64+418.701Z" opacity="1" fill="url(#LinearGradient_2)"/>
<path d="M1405.16+109.75C1372.25+109.75+1345.27+134.954+1342.34+167.094C1327.11+159.485+1310+155.094+1291.81+155.094C1229.2+155.094+1178.44+205.858+1178.44+268.469L1178.44+471.688C1178.44+491.243+1183.41+509.63+1192.12+525.688C1187.6+525.311+1183.06+525+1178.44+525C1132.21+525+1090.54+544.262+1060.78+575.094C1050.06+476.636+966.685+400+865.375+400C822.214+400+782.427+414.077+750+437.656L750+306C750+241.037+697.337+188.375+632.375+188.375C567.413+188.375+418.904+250.949+418.904+315.911L461.424+800C573.763+800.188+1396.28+800.188+1500+800L1500+400.094C1500+330.373+1538+267.062+1468.28+267.062L1468.28+172.875C1468.28+138.015+1440.02+109.75+1405.16+109.75ZM1342.03+573.188L1342.03+688.625C1342.03+648.98+1327.93+612.629+1304.47+584.312C1317.84+582.822+1330.48+578.916+1342.03+573.188Z" opacity="1" fill="url(#LinearGradient_3)"/>
<path d="M950.109+196.155C939.023+209.913+919.326+258.025+940.282+278.049C959.937+296.83+981.038+298.533+996.219+302.531C996.208+302.796+1000.43+331.828+996.125+358.75C993.03+378.101+1005.21+379.031+1016.41+379.031L1027.03+379.031C1038.23+379.031+1057.08+374.391+1050.23+356.031C1043.85+338.942+1047.31+303.312+1047.31+303.312C1047.31+303.163+1077.35+296.708+1088.76+281.332C1108.22+255.119+1094.48+233.705+1084.42+215.591C1073+195.065+1067.94+161.61+1022.7+158.031C980.901+154.725+991.289+145.054+950.109+196.155Z" opacity="1" fill="#484746"/>
<g opacity="1">
<path d="M231.656-89.6875C187.807-89.6875+152.25-44.2271+152.25+11.875L152.25+219.406C152.25+223.445+152.25+233.356+152.25+234.469L176.938+342.938C161.771+357.398+152.25+377.765+152.25+400.375L127.062+527.938C127.062+571.787+187.807+567.375+231.656+567.375C239.585+567.375+247.244+566.195+254.469+564.031L288.062+638.562C288.062+686.947+327.271+726.156+375.656+726.156L375.656+795.219C375.656+819.411+395.276+839.031+419.469+839.031C443.661+839.031+463.281+819.411+463.281+795.219C463.281+795.219+465.599+686.647+478.466+623.53C491.333+560.413+514.75+563.924+514.75+542.75L514.75+375.188C514.75+345.253+490.466+320.969+460.531+320.969C448.587+320.969+419.469+317.089+419.469+313.312L419.469+12.1562C419.469-11.4297+400.367-30.5625+376.781-30.5625C353.195-30.5625+334.062+12.1562+334.062+12.1562C334.062+12.1562+326.656+36.2138+320.906+36.1435C315.156+36.0732+311.062+11.875+311.062+11.875C311.062+11.875+275.505-89.6875+231.656-89.6875Z" opacity="1" fill="#5f5f5e"/>
<path d="M394.375-19.0938C380.833-19.0938+369.875-8.10451+369.875+5.4375L369.875+214.094C369.875+227.636+380.833+238.625+394.375+238.625C407.917+238.625+418.906+227.636+418.906+214.094L418.906+5.4375C418.906-8.10451+407.917-19.0938+394.375-19.0938ZM290.219+0C280.604+0+272.812+19.9405+272.812+44.5312L272.812+340.281C272.813+364.872+280.604+384.812+290.219+384.812C299.833+384.812+307.625+364.872+307.625+340.281L307.625+44.5312C307.625+19.9405+299.833+2.97051e-07+290.219+0ZM503.969+356.031C498.014+356.031+493.188+359.898+493.188+364.688L493.188+537.062C493.187+541.852+498.014+545.719+503.969+545.719C509.924+545.719+514.75+541.852+514.75+537.062L514.75+364.688C514.75+359.898+509.924+356.031+503.969+356.031Z" opacity="1" fill="#737373"/>
</g>
<g opacity="1">
<path d="M59.125+1.20312L59.125+39.1094C59.125+43.2334+59.9425+47.1381+61.2188+50.8281C59.9027+56.2733+59.125+61.9474+59.125+67.7969L59.125+190.797C59.125+230.575+91.3778+262.828+131.156+262.828L131.156+395.984C131.156+400.759+144.013+546.384+144.976+550.871C141.401+558.997+406.344+800.188+406.344+800.188L710.812+800.188C721.769+800.187+667.676+756.266+656.719+756.266L587.656+756.266C587.656+756.266+584.574+660.103+478.969+687.516C462.473+691.798+465.869+630.669+465.869+630.669C465.869+610.61+406.344+583.984+406.344+583.984L406.344+533.578C406.344+494.075+320.906+413.641+320.906+413.641C320.906+380.912+295.457+354.197+263.281+352.016L263.281+256.453C263.281+221.98+236.874+193.727+203.188+190.703L209.406+0C209.406-39.7785+59.125-18.6861+59.125+1.20312Z" opacity="1" fill="url(#LinearGradient_4)"/>
<path d="M156.594-38.9375C152.377-38.9375+148.969-35.529+148.969-31.3125L148.969-1.75C148.969+2.46651+152.377+5.875+156.594+5.875C160.81+5.875+164.25+2.46651+164.25-1.75L164.25-31.3125C164.25-35.529+160.81-38.9375+156.594-38.9375ZM137.719-14.25C136.065-14.25+134.719-12.9037+134.719-11.25L134.719+60C134.719+61.6537+136.065+62.9687+137.719+62.9688C139.372+62.9687+140.687+61.6537+140.688+60L140.688-11.25C140.687-12.9037+139.372-14.25+137.719-14.25ZM200.5+5.875C198.917+5.875+197.625+7.16715+197.625+8.75L197.625+103.281C197.625+104.864+198.917+106.125+200.5+106.125C202.083+106.125+203.375+104.864+203.375+103.281L203.375+8.75C203.375+7.16715+202.083+5.875+200.5+5.875ZM181.812+16.7188C177.964+16.7188+174.844+19.8386+174.844+23.6875L174.844+188.594C174.844+192.443+177.964+195.562+181.812+195.562C185.661+195.563+188.781+192.443+188.781+188.594L188.781+23.6875C188.781+19.8386+185.661+16.7188+181.812+16.7188ZM155.312+56C154.239+56+153.375+56.5076+153.375+57.125L153.375+101.406C152.214+100.712+150.951+100.188+149.5+100.188L148.438+100.188C144.155+100.187+140.688+103.655+140.688+107.938L140.688+175.25C140.687+179.532+144.155+183.031+148.438+183.031L149.5+183.031C153.782+183.031+157.25+179.532+157.25+175.25L157.25+107.938L157.25+57.125C157.25+56.5076+156.386+56+155.312+56ZM131.875+62.9688C130.301+62.9688+129+64.2699+129+65.8438L129+120.062C129+121.636+130.301+122.906+131.875+122.906C133.449+122.906+134.719+121.636+134.719+120.062L134.719+65.8438C134.719+64.2699+133.449+62.9688+131.875+62.9688ZM167.188+75.25C165.569+75.25+164.25+76.5685+164.25+78.1875L164.25+180.094C164.25+181.713+165.569+183.031+167.188+183.031C168.806+183.031+170.094+181.713+170.094+180.094L170.094+78.1875C170.094+76.5685+168.806+75.25+167.188+75.25ZM211.875+198.938C210.221+198.938+208.875+200.253+208.875+201.906L208.875+273.156C208.875+274.81+210.221+276.156+211.875+276.156C213.529+276.156+214.875+274.81+214.875+273.156L214.875+201.906C214.875+200.253+213.529+198.938+211.875+198.938ZM234.219+208.938C230.003+208.878+226.56+212.253+226.5+216.469L226.062+246C226.003+250.216+229.378+253.69+233.594+253.75C237.81+253.81+241.284+250.435+241.344+246.219L241.75+216.688C241.81+212.471+238.435+208.997+234.219+208.938ZM251.812+239.25C250.74+239.235+249.859+240.083+249.844+241.156L248.594+329.812C248.579+330.885+249.427+331.766+250.5+331.781C251.573+331.796+252.454+330.917+252.469+329.844L253.75+241.219C253.765+240.146+252.885+239.265+251.812+239.25ZM225.562+262.625C221.28+262.625+217.813+266.093+217.812+270.375L217.812+337.062C217.429+336.963+217.071+336.813+216.656+336.812C214.016+336.813+211.875+338.954+211.875+341.594L211.875+424.656C211.875+427.296+214.017+429.437+216.656+429.438C219.296+429.437+221.437+427.296+221.438+424.656L221.438+344.094C222.647+344.873+224.017+345.437+225.562+345.438L226.594+345.438C230.876+345.438+234.344+341.97+234.344+337.688L234.344+270.375C234.344+266.093+230.876+262.625+226.594+262.625L225.562+262.625ZM206.031+285.5C204.457+285.5+203.188+286.77+203.188+288.344L203.188+342.594C203.188+344.168+204.457+345.437+206.031+345.438C207.605+345.438+208.875+344.168+208.875+342.594L208.875+288.344C208.875+286.77+207.605+285.5+206.031+285.5ZM282.656+363.031C278.807+363.031+275.688+366.151+275.688+370L275.688+534.906C275.688+538.755+278.807+541.875+282.656+541.875C284.951+541.875+286.886+540.68+288.156+538.969L288.156+567.875C288.156+568.684+288.816+569.344+289.625+569.344C290.434+569.344+291.094+568.684+291.094+567.875L291.094+515.844C291.094+515.034+290.434+514.375+289.625+514.375L289.625+370C289.625+366.151+286.505+363.031+282.656+363.031ZM297.281+375.562C295.662+375.563+294.375+376.881+294.375+378.5L294.375+480.406C294.375+482.025+295.662+483.344+297.281+483.344C298.9+483.344+300.219+482.025+300.219+480.406L300.219+378.5C300.219+376.881+298.9+375.562+297.281+375.562ZM263.969+452.438C262.386+452.438+261.094+453.73+261.094+455.312L261.094+549.844C261.094+551.427+262.386+552.719+263.969+552.719C265.552+552.719+266.844+551.427+266.844+549.844L266.844+455.312C266.844+453.73+265.552+452.438+263.969+452.438ZM369.125+476.844C368.052+476.864+367.198+477.74+367.219+478.812L368.906+567.438C368.927+568.51+369.802+569.364+370.875+569.344C371.156+569.338+371.355+569.143+371.594+569.031L371.594+581.062C371.594+585.345+375.062+588.812+379.344+588.812L380.375+588.812C384.657+588.812+388.125+585.345+388.125+581.062L388.125+513.75C388.125+509.468+384.657+506+380.375+506L379.344+506C375.362+506+372.191+509.042+371.75+512.906L371.125+478.75C371.105+477.677+370.198+476.823+369.125+476.844ZM396.625+538C395.051+538+393.781+539.27+393.781+540.844L393.781+595.062C393.781+596.636+395.051+597.906+396.625+597.906C398.199+597.906+399.469+596.636+399.469+595.062L399.469+540.844C399.469+539.27+398.199+538+396.625+538ZM358.812+583.344C356.173+583.344+354.031+585.485+354.031+588.125L354.031+671.219C354.031+673.858+356.173+676+358.812+676C361.452+676+363.594+673.858+363.594+671.219L363.594+588.125C363.594+585.485+361.452+583.344+358.812+583.344ZM378.156+607.281C373.94+607.221+370.497+610.596+370.438+614.812L370+644.344C369.94+648.56+373.315+652.034+377.531+652.094C381.747+652.154+385.221+648.779+385.281+644.562L385.688+615C385.747+610.784+382.372+607.341+378.156+607.281ZM390.781+607.281C389.128+607.281+387.781+608.596+387.781+610.25L387.781+681.5C387.781+683.154+389.128+684.5+390.781+684.5C392.435+684.5+393.781+683.154+393.781+681.5L393.781+610.25C393.781+608.596+392.435+607.281+390.781+607.281ZM437.188+607.281C434.833+607.281+432.938+609.177+432.938+611.531L432.938+656.781C432.937+659.136+434.833+661.062+437.188+661.062C439.542+661.062+441.469+659.136+441.469+656.781L441.469+611.531C441.469+609.177+439.542+607.281+437.188+607.281ZM454.438+629.688C451.985+629.687+449.969+631.672+449.969+634.125L449.969+684.531C449.969+679.822+446.178+676+441.469+676C436.76+676+432.938+679.822+432.938+684.531L432.938+780.469C432.937+785.178+436.76+789+441.469+789C443.986+789+446.189+787.859+447.75+786.125L447.75+814.219C447.75+815.445+448.742+816.438+449.969+816.438C451.195+816.438+452.219+815.445+452.219+814.219L452.219+763.781C452.219+762.555+451.195+761.562+449.969+761.562L449.969+724.469C449.969+726.921+451.985+728.906+454.438+728.906C456.89+728.906+458.875+726.921+458.875+724.469L458.875+634.125C458.875+631.672+456.89+629.688+454.438+629.688ZM534.969+691.938C531.246+691.938+528.219+696.794+528.219+702.781L528.219+755.031C528.219+761.018+531.246+765.875+534.969+765.875C538.692+765.875+541.719+761.018+541.719+755.031L541.719+702.781C541.719+696.794+538.692+691.938+534.969+691.938Z" opacity="1" fill="#497392"/>
<path d="M210.438+109.75C209.874+109.75+209.406+110.218+209.406+110.781L209.406+139.281C209.406+139.845+209.874+140.312+210.438+140.312C211.001+140.313+211.438+139.845+211.438+139.281L211.438+110.781C211.438+110.218+211.001+109.75+210.438+109.75ZM221.625+121.031C220.984+121.031+220.469+121.578+220.469+122.219L220.469+126.031C220.469+126.672+220.984+127.188+221.625+127.188C222.266+127.187+222.813+126.672+222.812+126.031L222.812+122.219C222.813+121.578+222.266+121.031+221.625+121.031ZM216.75+130.938C215.74+130.938+214.938+131.771+214.938+132.781L214.938+147.219C214.937+148.229+215.74+149.031+216.75+149.031C216.905+149.031+217.012+148.911+217.156+148.875L217.156+161C217.156+161.395+217.48+161.719+217.875+161.719C218.27+161.719+218.594+161.395+218.594+161L218.594+147.219L218.594+132.781C218.594+131.771+217.76+130.938+216.75+130.938ZM224.656+135.312C224.051+135.312+223.562+135.832+223.562+136.438L223.562+141.344C223.562+141.949+224.051+142.438+224.656+142.438C225.262+142.438+225.75+141.949+225.75+141.344L225.75+136.438C225.75+135.832+225.262+135.312+224.656+135.312ZM229.031+151C228.622+151+228.281+151.341+228.281+151.75L228.281+158.125C228.012+157.931+227.733+157.719+227.375+157.719C226.468+157.719+225.75+158.468+225.75+159.375L225.75+162C225.75+162.907+226.468+163.625+227.375+163.625C228.282+163.625+229.031+162.907+229.031+162L229.031+160.094C229.441+160.094+229.781+159.784+229.781+159.375L229.781+151.75C229.781+151.341+229.441+151+229.031+151ZM210.438+155.094C209.874+155.094+209.406+155.561+209.406+156.125L209.406+183.375C209.406+183.939+209.874+184.375+210.438+184.375C211.001+184.375+211.438+183.939+211.438+183.375L211.438+156.125C211.438+155.561+211.001+155.094+210.438+155.094ZM223.188+155.094C222.98+155.094+222.812+155.261+222.812+155.469L222.812+176.469C222.813+176.676+222.98+176.844+223.188+176.844C223.395+176.844+223.562+176.676+223.562+176.469L223.562+155.469C223.562+155.261+223.395+155.094+223.188+155.094ZM236.219+161.719C235.835+161.719+235.531+162.054+235.531+162.438L235.531+169.031C235.531+169.415+235.835+169.75+236.219+169.75C236.603+169.75+236.938+169.415+236.938+169.031L236.938+162.438C236.938+162.054+236.603+161.719+236.219+161.719ZM231.75+165.969C231.385+165.969+231.094+166.26+231.094+166.625L231.094+171.906C230.364+171.906+229.781+172.489+229.781+173.219L229.781+179.156C229.781+179.886+230.364+180.5+231.094+180.5C231.824+180.5+232.406+179.886+232.406+179.156L232.406+173.219L232.406+166.625C232.406+166.26+232.115+165.969+231.75+165.969ZM221.625+184.375C220.984+184.375+220.469+184.89+220.469+185.531L220.469+191.938C220.469+192.579+220.984+193.094+221.625+193.094C222.266+193.094+222.812+192.579+222.812+191.938L222.812+185.531C222.813+184.89+222.266+184.375+221.625+184.375ZM229.031+186.656C228.622+186.656+228.281+186.997+228.281+187.406L228.281+194.812C228.281+195.222+228.622+195.562+229.031+195.562C229.441+195.562+229.781+195.222+229.781+194.812L229.781+187.406C229.781+186.997+229.441+186.656+229.031+186.656ZM216.031+188.75C215.416+188.75+214.938+189.228+214.938+189.844L214.938+194.438C214.937+195.053+215.416+195.562+216.031+195.562C216.647+195.562+217.156+195.053+217.156+194.438L217.156+189.844C217.156+189.228+216.647+188.75+216.031+188.75ZM284.094+307.625C283.621+307.625+283.25+307.996+283.25+308.469L283.25+315.781C283.25+316.254+283.621+316.656+284.094+316.656C284.566+316.656+284.969+316.254+284.969+315.781L284.969+308.469C284.969+307.996+284.566+307.625+284.094+307.625ZM297.062+307.625C296.577+307.625+296.188+308.014+296.188+308.5L296.188+318.438C296.187+318.923+296.577+319.312+297.062+319.312C297.548+319.313+297.938+318.923+297.938+318.438L297.938+308.5C297.938+308.014+297.548+307.625+297.062+307.625ZM277.344+312.469C276.609+312.469+276.031+313.046+276.031+313.781L276.031+324.812C276.031+325.548+276.609+326.156+277.344+326.156C278.079+326.156+278.688+325.548+278.688+324.812L278.688+313.781C278.688+313.046+278.079+312.469+277.344+312.469ZM290+328.531C289.527+328.531+289.156+328.902+289.156+329.375L289.156+337.094C289.156+337.566+289.527+337.938+290+337.938C290.473+337.937+290.844+337.566+290.844+337.094L290.844+345.562C290.844+346.335+291.477+346.969+292.25+346.969C293.023+346.969+293.656+346.336+293.656+345.562L293.656+334.625C293.656+333.852+293.023+333.219+292.25+333.219C291.477+333.219+290.844+333.852+290.844+334.625L290.844+329.375C290.844+328.902+290.473+328.531+290+328.531ZM274.406+331.688C273.519+331.688+272.812+332.394+272.812+333.281L272.812+354.438C272.813+355.325+273.519+356.031+274.406+356.031C275.293+356.031+276.031+355.325+276.031+354.438L276.031+333.281C276.031+332.394+275.293+331.688+274.406+331.688ZM300.969+333.219C300.272+333.219+299.688+333.804+299.688+334.5L299.688+340.375C299.454+340.276+299.269+340.094+299+340.094C297.923+340.094+297.062+340.986+297.062+342.062L297.062+347.969C297.063+349.045+297.923+349.938+299+349.938C300.077+349.937+300.969+349.045+300.969+347.969L300.969+343.844C301.665+343.844+302.219+343.29+302.219+342.594L302.219+334.5C302.219+333.804+301.665+333.219+300.969+333.219ZM284.094+337.938C283.621+337.937+283.25+338.309+283.25+338.781L283.25+346.125C283.25+346.598+283.621+346.969+284.094+346.969C284.566+346.969+284.969+346.597+284.969+346.125L284.969+338.781C284.969+338.309+284.566+337.938+284.094+337.938ZM290+353.344C289.527+353.344+289.156+353.715+289.156+354.188L289.156+362.844C289.156+363.316+289.527+363.688+290+363.688C290.473+363.687+290.844+363.316+290.844+362.844L290.844+354.188C290.844+353.715+290.473+353.344+290+353.344ZM297.938+353.344C296.966+353.344+296.188+354.122+296.188+355.094L296.188+361.938C296.187+362.909+296.966+363.688+297.938+363.688C298.909+363.687+299.688+362.909+299.688+361.938L299.688+355.094C299.688+354.122+298.909+353.344+297.938+353.344ZM420.688+539.625C419.702+539.625+418.906+540.421+418.906+541.406L418.906+557.156C418.906+558.142+419.702+558.938+420.688+558.938C421.673+558.938+422.469+558.142+422.469+557.156L422.469+541.406C422.469+540.421+421.673+539.625+420.688+539.625ZM451.375+539.625C450.589+539.625+449.938+540.277+449.938+541.062L449.938+557.5C449.938+558.286+450.589+558.938+451.375+558.938C452.161+558.938+452.781+558.286+452.781+557.5L452.781+541.062C452.781+540.277+452.161+539.625+451.375+539.625ZM440.531+545.719C440.121+545.719+439.781+546.059+439.781+546.469L439.781+574.281C439.781+574.691+440.121+575+440.531+575C440.941+575+441.281+574.691+441.281+574.281L441.281+579.094C441.281+580.324+442.27+581.312+443.5+581.312C444.73+581.313+445.719+580.324+445.719+579.094L445.719+562.594C445.719+561.364+444.73+560.375+443.5+560.375C442.27+560.375+441.281+561.364+441.281+562.594L441.281+546.469C441.281+546.059+440.941+545.719+440.531+545.719ZM430.438+558.938C429.857+558.938+429.406+559.388+429.406+559.969L429.406+583.75C429.406+584.331+429.857+584.781+430.438+584.781C431.018+584.781+431.5+584.331+431.5+583.75L431.5+559.969C431.5+559.388+431.018+558.938+430.438+558.938ZM462.125+558.938C461.612+558.937+461.188+559.331+461.188+559.844L461.188+570.938C461.187+571.45+461.612+571.844+462.125+571.844C462.638+571.844+463.062+571.45+463.062+570.938L463.062+559.844C463.063+559.331+462.638+558.938+462.125+558.938ZM454.594+570.844C453.603+570.844+452.781+571.634+452.781+572.625L452.781+583C452.781+583.991+453.603+584.781+454.594+584.781C455.585+584.781+456.375+583.991+456.375+583L456.375+572.625C456.375+571.634+455.585+570.844+454.594+570.844ZM420.688+575C419.702+575+418.906+575.796+418.906+576.781L418.906+592.906C418.906+593.892+419.702+594.688+420.688+594.688C421.673+594.687+422.469+593.892+422.469+592.906L422.469+576.781C422.469+575.796+421.673+575+420.688+575ZM444.625+584.844C444.01+584.844+443.5+585.354+443.5+585.969L443.5+601.188C443.5+601.802+444.01+602.312+444.625+602.312C445.24+602.312+445.719+601.802+445.719+601.188L445.719+585.969C445.719+585.354+445.24+584.844+444.625+584.844ZM454.594+597.531C453.603+597.531+452.781+598.322+452.781+599.312L452.781+615.281C452.781+616.272+453.603+617.094+454.594+617.094C455.585+617.094+456.375+616.272+456.375+615.281L456.375+599.312C456.375+598.322+455.585+597.531+454.594+597.531ZM492.75+655.938C492.175+655.937+491.688+656.394+491.688+656.969L491.688+667.406C491.687+667.981+492.175+668.438+492.75+668.438C493.325+668.438+493.781+667.981+493.781+667.406L493.781+656.969C493.781+656.394+493.325+655.938+492.75+655.938ZM508.75+662.188C508.202+662.187+507.75+662.64+507.75+663.188L507.75+671.906C507.75+672.454+508.202+672.906+508.75+672.906C509.298+672.906+509.75+672.454+509.75+671.906L509.75+663.188C509.75+662.64+509.298+662.188+508.75+662.188ZM486.438+668.438C485.78+668.437+485.25+668.968+485.25+669.625L485.25+686.594C485.25+687.251+485.78+687.781+486.438+687.781C487.095+687.781+487.625+687.251+487.625+686.594L487.625+669.625C487.625+668.968+487.095+668.437+486.438+668.438ZM523.969+675.688C523.394+675.688+522.938+676.144+522.938+676.719L522.938+684.438C522.938+685.013+523.394+685.5+523.969+685.5C524.544+685.5+525.031+685.013+525.031+684.438L525.031+676.719C525.031+676.144+524.544+675.688+523.969+675.688ZM589.438+702.219C588.655+702.219+588.031+702.843+588.031+703.625L588.031+718.469C588.031+719.251+588.655+719.875+589.438+719.875C590.22+719.875+590.844+719.25+590.844+718.469L590.844+703.625C590.844+702.843+590.22+702.219+589.438+702.219ZM583.062+708.688C582.147+708.687+581.406+709.46+581.406+710.375L581.406+718.219C581.406+719.134+582.147+719.875+583.062+719.875C583.978+719.875+584.719+719.134+584.719+718.219L584.719+710.375C584.719+709.459+583.978+708.688+583.062+708.688ZM634.062+708.688C633.292+708.687+632.656+709.323+632.656+710.094L632.656+721.125C632.104+721.402+631.656+721.875+631.656+722.531L631.656+730.375C631.656+731.291+632.397+732.031+633.312+732.031C634.228+732.031+634.969+731.29+634.969+730.375L634.969+723.375C635.266+723.116+635.469+722.765+635.469+722.344L635.469+710.094C635.469+709.323+634.833+708.688+634.062+708.688ZM618.469+713.688C617.442+713.687+616.594+714.505+616.594+715.531L616.594+724.219C616.594+725.245+617.442+726.094+618.469+726.094C619.495+726.094+620.312+725.245+620.312+724.219L620.312+715.531C620.313+714.504+619.495+713.688+618.469+713.688ZM639.688+714.375C638.905+714.375+638.281+715+638.281+715.781L638.281+730.625C638.281+731.407+638.905+732.031+639.688+732.031C640.47+732.031+641.094+731.407+641.094+730.625L641.094+715.781C641.094+714.999+640.47+714.375+639.688+714.375ZM684.312+720.844C683.542+720.844+682.906+721.479+682.906+722.25L682.906+734.5C682.906+735.271+683.541+735.906+684.312+735.906C685.083+735.906+685.719+735.271+685.719+734.5L685.719+722.25C685.719+721.479+685.084+720.844+684.312+720.844ZM660.781+723.75C659.932+723.75+659.25+724.432+659.25+725.281L659.25+732.969C659.25+733.818+659.932+734.5+660.781+734.5C661.63+734.5+662.312+733.818+662.312+732.969L662.312+725.281C662.312+724.432+661.63+723.75+660.781+723.75ZM668.719+725.844C667.692+725.844+666.844+726.661+666.844+727.688L666.844+736.375C666.844+737.402+667.692+738.25+668.719+738.25C669.745+738.25+670.562+737.401+670.562+736.375L670.562+727.688C670.563+726.661+669.745+725.844+668.719+725.844ZM605.156+726.094C604.65+726.094+604.25+726.494+604.25+727L604.25+737.25C604.25+737.756+604.65+738.156+605.156+738.156C605.662+738.156+606.062+737.756+606.062+737.25L606.062+727C606.063+726.494+605.663+726.094+605.156+726.094ZM624.719+726.094C623.859+726.094+623.156+726.766+623.156+727.625L623.156+732.938C623.156+733.195+623.326+733.379+623.438+733.594C622.949+733.962+622.562+734.49+622.562+735.188L622.562+745.688C621.142+743.444+619.073+741.776+616.594+741.125L616.594+735.625C616.594+735.008+616.086+734.5+615.469+734.5C614.852+734.5+614.375+735.008+614.375+735.625L614.375+740.812C611.797+740.813+609.475+741.93+607.688+743.656C606.208+741.924+604.126+740.811+601.781+740.812L601.781+730.906C601.781+729.797+600.89+728.875+599.781+728.875C598.672+728.875+597.781+729.797+597.781+730.906L597.781+740.906C597.781+741.064+597.903+741.165+597.938+741.312C594.642+742.238+594.031+744.156+594.031+744.156C594.031+744.156+594.009+740.784+590.844+740.812C589.279+740.827+588.031+742.203+588.031+743.906L588.031+730.875C588.031+728.882+586.55+727.281+584.719+727.281C582.887+727.281+581.406+728.882+581.406+730.875L581.406+768.375C581.406+768.375+585.337+766.069+587.094+763.969C587.978+761.628+588.716+758.719+590.281+758.719C591.846+758.719+593.125+760.11+593.125+761.812C593.125+761.812+593.386+765.548+593.688+764.625C594.802+761.212+597.696+758.719+601.219+758.719C603.564+758.719+605.646+759.862+607.125+761.594C608.912+759.868+611.235+758.719+613.812+758.719C617.274+758.719+620.174+760.741+622+763.625L625.719+770.25C625.872+770.237+626+770.156+626.156+770.156C628.3+770.156+630.108+771.463+631.156+773.312C631.189+773.309+631.218+773.287+631.25+773.281C631.338+773.38+635.605+778.204+637.344+776.125C638.228+773.784+638.966+770.875+640.531+770.875C641.817+770.875+643.72+773.116+644.375+774.875C644.53+775.659+644.687+776.425+644.688+777.281L644.688+785.469C646.723+785.469+648.514+786.339+649.938+787.688L649.938+786.531C649.938+784.829+651.217+783.437+652.781+783.438C654.346+783.438+655.625+784.828+655.625+786.531L655.625+793.125C656.203+792.068+657.225+791.344+658.438+791.344C660.269+791.344+661.75+792.945+661.75+794.938C661.75+794.938+665.578+788.636+665.719+784.156C665.834+780.493+665.78+774.044+665.75+771.125C668.458+771.662+670.732+773.384+672.25+775.781L675.969+782.406C676.122+782.393+676.25+782.312+676.406+782.312C678.55+782.312+680.358+783.619+681.406+785.469C681.73+785.435+682.011+785.25+682.344+785.25C682.608+785.25+682.834+785.416+683.094+785.438C684.131+782.505+686.209+780.437+688.656+780.438C692.126+780.438+694.937+784.455+694.938+789.438L694.938+797.594C696.973+797.594+698.764+798.495+700.188+799.844L700.188+798.688C700.188+796.985+701.467+795.594+703.031+795.594C704.596+795.594+705.875+796.985+705.875+798.688L705.875+805.281C706.453+804.224+707.475+803.5+708.688+803.5C710.519+803.5+712+805.101+712+807.094C712+807.094+715.749+800.88+715.938+796.406C715.943+796.386+716+796.433+716+796.406C716.004+794.424+715.969+793.838+715.969+792.906L715.969+779.281C715.969+778.35+715.213+777.594+714.281+777.594C713.35+777.594+712.594+778.35+712.594+779.281L712.594+789.219C712.593+789.218+712.562+789.187+712.562+789.188C712.562+787.195+711.082+785.563+709.25+785.562C708.037+785.562+707.015+786.318+706.438+787.375L706.438+780.781C706.437+779.079+705.159+777.687+703.594+777.688C702.029+777.687+700.75+779.078+700.75+780.781L700.75+781.938C699.327+780.589+697.535+779.687+695.5+779.688L695.5+771.531C695.5+766.549+692.688+762.5+689.219+762.5C686.771+762.5+684.694+764.567+683.656+767.5C683.397+767.478+683.171+767.344+682.906+767.344C682.574+767.344+682.293+767.529+681.969+767.562C680.92+765.713+679.112+764.375+676.969+764.375C676.813+764.375+676.684+764.487+676.531+764.5L676.531+747.344C676.531+746.893+676.326+746.527+676.094+746.188C676.377+745.904+676.531+745.524+676.531+745.094L676.531+739.781C676.531+738.922+675.828+738.25+674.969+738.25C674.109+738.25+673.406+738.922+673.406+739.781L673.406+745.094C673.406+745.352+673.576+745.535+673.688+745.75C673.199+746.119+672.812+746.646+672.812+747.344L672.812+757.844C671.392+755.6+669.323+753.932+666.844+753.281L666.844+747.781C666.844+747.164+666.336+746.656+665.719+746.656C665.102+746.656+664.625+747.164+664.625+747.781L664.625+752.969C662.047+752.969+659.725+754.086+657.938+755.812C657.301+755.068+656.519+754.51+655.688+754.031L655.688+751.281C655.688+750.633+655.149+750.094+654.5+750.094C653.851+750.094+653.344+750.632+653.344+751.281L653.344+753.281C652.899+753.196+652.5+752.968+652.031+752.969L652.031+743.062C652.031+741.953+651.14+741.031+650.031+741.031C648.922+741.031+648.031+741.953+648.031+743.062L648.031+753.062C648.031+753.221+648.153+753.322+648.188+753.469C645.612+754.192+644.992+755.195+644.719+755.75C643.743+752.591+641.533+750.375+638.969+750.375C638.729+750.375+638.513+750.462+638.281+750.5L638.281+743.031C638.281+741.947+637.82+741.004+637.125+740.344L637.125+739.531C637.125+739.07+636.773+738.719+636.312+738.719C635.852+738.719+635.469+739.07+635.469+739.531C635.303+739.503+635.142+739.437+634.969+739.438C633.137+739.437+631.656+741.038+631.656+743.031L631.469+755.125C630.399+753.453+628.731+752.219+626.719+752.219C626.563+752.219+626.434+752.331+626.281+752.344L626.281+735.188C626.281+734.737+626.076+734.371+625.844+734.031C626.127+733.748+626.281+733.367+626.281+732.938L626.281+727.625C626.281+726.766+625.578+726.094+624.719+726.094ZM646.5+728.875C645.804+728.875+645.25+729.461+645.25+730.156L645.25+743.938C645.25+744.633+645.804+745.188+646.5+745.188C647.196+745.188+647.75+744.633+647.75+743.938L647.75+730.156C647.75+729.461+647.196+728.875+646.5+728.875ZM711.031+735.906C710.182+735.906+709.5+736.589+709.5+737.438L709.5+745.125C709.5+745.974+710.182+746.656+711.031+746.656C711.88+746.656+712.562+745.974+712.562+745.125L712.562+737.438C712.562+736.588+711.88+735.906+711.031+735.906ZM655.406+738.25C654.9+738.25+654.5+738.65+654.5+739.156L654.5+749.406C654.5+749.912+654.9+750.312+655.406+750.312C655.852+750.313+656.169+749.982+656.25+749.562C656.342+751.176+657.612+752.469+659.25+752.469C660.948+752.469+662.312+751.105+662.312+749.406L662.312+746C662.313+744.302+660.948+742.906+659.25+742.906C657.672+742.906+656.488+744.155+656.312+745.688L656.312+739.156C656.313+738.65+655.913+738.25+655.406+738.25ZM696.75+741.031C696.054+741.031+695.5+741.617+695.5+742.312L695.5+756.094C695.5+756.789+696.054+757.344+696.75+757.344C697.446+757.344+698+756.789+698+756.094L698+742.312C698+741.617+697.446+741.031+696.75+741.031ZM686.562+750.875C686.102+750.875+685.719+751.227+685.719+751.688L685.719+761.438C685.719+761.899+686.102+762.25+686.562+762.25C687.024+762.25+687.375+761.898+687.375+761.438L687.375+751.688C687.375+751.226+687.023+750.875+686.562+750.875ZM722.031+751.406C721.754+751.406+721.531+751.629+721.531+751.906L721.531+764.812C721.531+765.09+721.754+765.312+722.031+765.312C722.309+765.312+722.531+765.09+722.531+764.812L722.531+751.906C722.531+751.629+722.309+751.406+722.031+751.406ZM709.5+755.062C707.802+755.062+706.438+756.457+706.438+758.156L706.438+761.562C706.437+763.261+707.801+764.625+709.5+764.625C711.198+764.625+712.562+763.261+712.562+761.562L712.562+758.156C712.563+756.458+711.199+755.062+709.5+755.062ZM718.25+760.75C716.998+760.75+716+761.748+716+763L716+773.438C716+774.689+716.998+775.688+718.25+775.688C719.502+775.688+720.531+774.69+720.531+773.438L720.531+763C720.531+761.748+719.502+760.75+718.25+760.75ZM704.75+762.25C704.101+762.25+703.594+762.788+703.594+763.438L703.594+772.906C703.594+773.555+704.101+774.062+704.75+774.062C705.399+774.062+705.938+773.555+705.938+772.906L705.938+763.438C705.938+762.789+705.399+762.25+704.75+762.25ZM737.125+765.312C736.559+765.313+736.094+765.777+736.094+766.344L736.094+774.656C736.094+775.222+736.559+775.688+737.125+775.688C737.691+775.688+738.156+775.223+738.156+774.656L738.156+766.344C738.156+765.777+737.691+765.312+737.125+765.312ZM602.094+766.688C599.777+766.688+597.906+768.558+597.906+770.875L597.906+771.875C596.942+771.051+595.596+770.531+594.125+770.531C591.184+770.531+588.812+772.58+588.812+775.094L588.812+816.312C588.812+818.826+591.184+820.875+594.125+820.875C597.067+820.875+599.469+818.826+599.469+816.312L599.469+809.062C600.194+809.66+601.081+810.063+602.094+810.062C604.077+810.062+605.688+808.663+606.125+806.812C606.564+806.929+606.993+807.094+607.469+807.094C609.516+807.094+611.25+805.904+612.156+804.219L612.156+805.312C612.156+807.943+614.425+810.062+617.25+810.062C617.371+810.063+617.475+810.008+617.594+810L617.594+810.344C617.594+813.701+620.33+816.438+623.688+816.438C627.045+816.438+629.781+813.701+629.781+810.344L629.781+806.875C630.144+806.931+630.466+807.094+630.844+807.094C634.8+807.094+638+803.894+638+799.938L638+792.469C638+788.512+634.8+785.312+630.844+785.312C629.449+785.312+628.226+785.811+627.125+786.5C626.137+785.806+624.987+785.312+623.688+785.312C623.224+785.312+622.809+785.464+622.375+785.562L622.375+771.438C622.375+768.807+620.075+766.688+617.25+766.688C614.425+766.687+612.156+768.807+612.156+771.438L612.156+781.094C611.25+779.408+609.516+778.219+607.469+778.219C607.06+778.219+606.695+778.351+606.312+778.438L606.312+770.875C606.312+768.558+604.411+766.688+602.094+766.688ZM727.812+769.781C727.489+769.781+727.25+770.052+727.25+770.375L727.25+783.094C727.25+783.417+727.489+783.688+727.812+783.688C728.136+783.688+728.406+783.417+728.406+783.094L728.406+770.375C728.406+770.052+728.136+769.781+727.812+769.781ZM721.531+779.719C720.976+779.719+720.531+780.164+720.531+780.719L720.531+791.562C720.531+792.118+720.976+792.562+721.531+792.562C722.086+792.562+722.531+792.118+722.531+791.562L722.531+780.719C722.531+780.164+722.086+779.719+721.531+779.719ZM733.531+779.719C733.37+779.719+733.25+779.838+733.25+780L733.25+797.594C733.25+797.755+733.37+797.906+733.531+797.906C733.693+797.906+733.812+797.755+733.812+797.594L733.812+780C733.812+779.838+733.693+779.719+733.531+779.719ZM581.406+781.906L581.406+785.312L581.406+781.906ZM739+786.156C738.535+786.156+738.156+786.535+738.156+787L738.156+794.094C738.156+794.559+738.535+794.938+739+794.938C739.465+794.938+739.844+794.559+739.844+794.094L739.844+787C739.844+786.535+739.465+786.156+739+786.156ZM727.812+789.688C727.489+789.687+727.25+789.958+727.25+790.281L727.25+799.594C727.25+799.917+727.489+800.188+727.812+800.188C728.136+800.187+728.406+799.917+728.406+799.594L728.406+790.281C728.406+789.958+728.136+789.688+727.812+789.688ZM745.594+792.562C744.805+792.563+744.156+793.211+744.156+794L744.156+801.969C744.156+802.757+744.805+803.375+745.594+803.375C746.382+803.375+747+802.757+747+801.969L747+794C747+793.211+746.382+792.562+745.594+792.562Z" opacity="1" fill="#b8f0f0"/>
</g>
<g opacity="1">
<path d="M39.1562-30.5625C17.528-30.5625+0-11.9684+0+10.9688L0+273.344L0+463.406L0+798.969L406.344+800.188L406.344+746.438C406.344+694.726+364.399+652.781+312.688+652.781C309.162+652.781+305.706+653.027+302.281+653.406L302.281+648.156C302.281+586.308+252.161+536.156+190.312+536.156C178.587+536.156+167.278+537.97+156.656+541.312L156.656+273.344C156.656+230.087+121.569+195.031+78.3125+195.031L78.3125+10.9688C78.3125-11.9684+60.7845-30.5625+39.1562-30.5625Z" opacity="1" fill="#737373"/>
<path d="M78.9688+195.562C78.8917+518.321+157.5+447.14+157.5+285.594C157.5+203.633+95.7787+195.562+78.9688+195.562ZM44.6562+467.812C36.6572+467.812+30.1562+474.61+30.1562+483L30.1562+801.25C30.1563+809.64+36.6572+816.438+44.6562+816.438C52.6553+816.438+59.125+809.64+59.125+801.25L59.125+483C59.125+474.61+52.6553+467.812+44.6562+467.812ZM183.688+534.906C169.698+534.573+159.598+536.891+157.5+540.219L157.5+714.625C157.5+799.999+250.571+800.178+249.406+702.281C255.345+665.611+302.219+653.469+302.219+653.469C302.482+560.742+225.657+535.906+183.688+534.906Z" opacity="1" fill="#5f5f5e"/>
</g>
<g opacity="1">
<path d="M1086.47+356.031L932.812+379.031C884.475+379.031+834.503+406.047+814.094+447.125C761.345+468.308+710.813+556.031+710.812+556.031L818.812+697.531L980.031+679.531C985.422+681.96+991.897+684.187+999.812+686.094C1047.31+697.538+1086.47+697.531+1086.47+697.531C1086.47+697.531+1109.94+743.621+1113.75+800L1183.56+800C1204.44+823.867+1235.05+839.031+1269.25+839.031L1447.91+839.031C1510.82+839.031+1561.81+788.039+1561.81+725.125L1561.81+669.938C1561.81+633.835+1544.98+601.715+1518.78+580.844C1528.44+565.428+1534+548.045+1534+529.594L1534+492.938C1535.71+379.021+1561.83+379.031+1392.75+379.031C1223.67+379.031+1329.06+379.031+1329.06+379.031C1266.23+379.031+1231.46+379.179+1212.09+384.844C1201.51+381.145+1190.16+379.031+1178.31+379.031L1153.16+379.031C1136.87+371.224+1114.8+365.495+1086.47+356.031Z" opacity="1" fill="#616161"/>
<path d="M1089.12+356.031C1088.48+356.012+1088.06+356.113+1087.91+356.344L1063.34+359.281C1067.12+373.843+1085.38+444.222+1120.44+411C1154.43+378.785+1181.67+392.058+1177.06+390.25C1177.06+390.25+1150.76+378.685+1126.72+369C1109.62+362.115+1093.66+356.169+1089.12+356.031ZM921.875+378.562C901.085+377.927+829.25+402.865+815.781+444.656C801.415+489.233+841.065+444.151+839.656+460C839.656+460+917.133+405.998+915.031+401.531L925.312+379.031C924.413+378.759+923.261+378.605+921.875+378.562ZM1340+415.812L1340+416.094L1340+415.812ZM1347.75+442.344C1343.47+442.344+1340+445.812+1340+450.094L1340+452.719C1340+457.001+1343.47+460.469+1347.75+460.469L1414.19+460.469C1418.47+460.469+1421.94+457.001+1421.94+452.719L1421.94+450.094C1421.94+445.812+1418.47+442.344+1414.19+442.344L1347.75+442.344ZM1256.47+498.719C1254.46+498.719+1252.81+500.33+1252.81+502.344C1252.81+504.357+1254.46+506+1256.47+506L1330.06+506C1332.08+506+1333.69+504.357+1333.69+502.344C1333.69+500.33+1332.08+498.719+1330.06+498.719L1256.47+498.719ZM1264.72+521.25C1262.71+521.25+1261.09+522.893+1261.09+524.906C1261.09+526.92+1262.71+528.562+1264.72+528.562L1338.34+528.562C1340.36+528.563+1341.97+526.92+1341.97+524.906C1341.97+522.893+1340.36+521.25+1338.34+521.25L1264.72+521.25ZM1408.75+521.25C1406.74+521.208+1405.07+522.8+1405.03+524.812C1404.99+526.825+1406.58+528.52+1408.59+528.562L1482.19+530.094C1484.2+530.136+1485.86+528.544+1485.91+526.531C1485.95+524.518+1484.33+522.855+1482.31+522.812L1408.75+521.25ZM1331+556.094C1326.72+556.004+1323.18+559.406+1323.09+563.688L1323.03+566.281C1322.94+570.562+1326.34+574.129+1330.62+574.219L1397.06+575.594C1401.34+575.684+1404.88+572.281+1404.97+568L1405.03+565.406C1405.04+564.942+1404.85+564.537+1404.78+564.094L1489.34+565.844C1491.45+565.888+1493.17+564.231+1493.22+562.125C1493.26+560.019+1491.61+558.263+1489.5+558.219L1387.62+556.094C1386.54+556.071+1385.55+556.507+1384.84+557.219L1331+556.094ZM1424.5+576.188C1422.12+576.137+1420.14+578.021+1420.09+580.406C1420.04+582.791+1421.93+584.762+1424.31+584.812L1383.34+583.969C1382.08+583.942+1381.06+584.924+1381.03+586.188C1381+587.451+1381.99+588.505+1383.25+588.531L1479.12+590.531C1480.39+590.558+1481.44+589.576+1481.47+588.312C1481.5+587.049+1480.48+585.995+1479.22+585.969L1514.03+586.688C1516.42+586.738+1518.39+584.854+1518.44+582.469C1518.49+580.084+1516.6+578.113+1514.22+578.062L1424.5+576.188ZM1404.25+602L1404.25+602.312L1404.25+602ZM1207.28+617.781C1203+617.781+1199.53+621.249+1199.53+625.531L1199.53+628.156C1199.53+632.438+1203+635.906+1207.28+635.906L1273.72+635.906C1278+635.906+1281.47+632.438+1281.47+628.156L1281.47+625.531C1281.47+621.249+1278+617.781+1273.72+617.781L1207.28+617.781ZM1058.69+635.906C1056.3+635.906+1054.34+637.833+1054.34+640.219C1054.34+642.604+1056.3+644.562+1058.69+644.562L1148.41+644.562C1150.79+644.563+1152.72+642.604+1152.72+640.219C1152.72+637.833+1150.79+635.906+1148.41+635.906L1058.69+635.906ZM1314.53+660.656L1214.16+662.375C1211.41+662.421+1209.27+665.096+1209.34+668.344C1209.42+671.592+1211.69+674.171+1214.44+674.125L1314.81+672.438C1317.56+672.391+1319.73+669.717+1319.66+666.469C1319.58+663.221+1317.28+660.61+1314.53+660.656ZM1115.94+696.594C1113.92+696.594+1112.28+698.237+1112.28+700.25C1112.28+702.263+1113.92+703.875+1115.94+703.875L1189.53+703.875C1191.54+703.875+1193.16+702.263+1193.16+700.25C1193.16+698.237+1191.54+696.594+1189.53+696.594L1115.94+696.594ZM1250.69+700.25C1248.58+700.206+1246.83+701.863+1246.78+703.969C1246.74+706.074+1248.43+707.831+1250.53+707.875L1352.38+710C1354.48+710.044+1356.24+708.387+1356.28+706.281C1356.33+704.176+1354.67+702.419+1352.56+702.375L1250.69+700.25ZM1124.22+719.156C1122.21+719.156+1120.56+720.768+1120.56+722.781C1120.56+724.795+1122.21+726.438+1124.22+726.438L1197.81+726.438C1199.83+726.437+1201.44+724.795+1201.44+722.781C1201.44+720.768+1199.83+719.156+1197.81+719.156L1124.22+719.156ZM1190.5+753.969C1186.22+753.879+1182.65+757.281+1182.56+761.562L1182.53+764.188C1182.44+768.469+1185.81+772.004+1190.09+772.094L1256.53+773.5C1260.81+773.59+1264.35+770.187+1264.44+765.906L1264.5+763.281C1264.59+759+1261.19+755.465+1256.91+755.375L1190.5+753.969ZM1283.97+774.062C1281.58+774.013+1279.61+775.896+1279.56+778.281C1279.51+780.666+1281.4+782.637+1283.78+782.688L1242.81+781.844C1241.55+781.817+1240.53+782.831+1240.5+784.094C1240.47+785.357+1241.46+786.38+1242.72+786.406L1338.59+788.438C1339.86+788.464+1340.91+787.451+1340.94+786.188C1340.96+784.935+1339.97+783.886+1338.72+783.844L1373.5+784.594C1375.88+784.644+1377.86+782.729+1377.91+780.344C1377.96+777.959+1376.07+775.988+1373.69+775.938L1283.97+774.062ZM1263.72+799.875L1263.72+800.188L1263.72+799.875Z" opacity="1" fill="#747777"/>
</g>
</g>
<g opacity="1">
<path d="M920.503+350.889C919.683+350.889+919.014+351.054+919.014+351.251L919.014+369.719C919.014+369.916+919.683+370.068+920.503+370.068C920.525+370.068+920.537+370.062+920.559+370.062C920.58+370.067+920.599+370.087+920.621+370.087L932.381+370.087L932.381+378.265C932.381+378.69+932.836+379.031+933.396+379.031C933.572+379.031+934.888+379.016+935.284+378.614L942.03+371.762C942.312+371.476+943.238+369.943+943.238+369.383L943.238+352.49C943.238+351.665+942.601+351.008+941.799+350.92C941.769+350.916+941.749+350.889+941.718+350.889L929.933+350.889C929.928+350.889+929.925+350.901+929.921+350.902C929.912+350.901+929.905+350.889+929.896+350.889L920.752+350.889C920.734+350.889+920.719+350.906+920.702+350.908C920.627+350.905+920.581+350.889+920.503+350.889ZM930.07+353.35C930.078+353.353+930.087+353.368+930.095+353.368L940.192+353.456L940.067+362.45C940.067+362.45+939.419+362.816+939.121+362.942L933.508+365.328C932.834+365.614+932.381+367.087+932.381+367.196L932.381+367.62L921.985+367.788L921.985+362.556L928.438+362.556C928.863+362.556+929.211+362.091+929.211+361.522C929.211+360.953+928.863+360.488+928.438+360.488L921.985+360.488L921.985+353.412L929.896+353.412C929.957+353.412+930.013+353.376+930.07+353.35ZM940.03+366.2C940.03+366.2+940.021+369.423+938.616+371.364C937.211+373.304+934.412+375.201+934.412+375.201L934.412+368.068L940.03+366.2Z" opacity="1" fill="url(#LinearGradient_5)"/>
<path stroke="#f6bcb4" stroke-width="0.59" d="M913.328+357.685C914.717+355.773+916.77+356.922+917.192+357.944C917.836+359.501+913.202+363.21+913.328+363.646C913.517+364.302+917.254+363.938+917.254+363.938" fill="none" stroke-linecap="round" opacity="1" stroke-linejoin="round"/>
<path stroke="#f599ed" stroke-width="0.59" d="M950.686+359.638C950.272+360.961+949.334+363.774+951.536+364.031C953.513+364.262+954.496+359.443+953.508+358.373C952.428+357.205+950.977+358.609+950.691+359.635" fill="none" stroke-linecap="round" opacity="1" stroke-linejoin="round"/>
<path stroke="#f6bcb4" stroke-width="0.59" d="M908.183+357.75C909.573+355.838+911.626+356.987+912.048+358.009C912.156+358.271+912.115+358.593+911.973+358.951C911.268+360.72+908.079+363.348+908.183+363.711C908.372+364.367+912.11+364.003+912.11+364.003" fill="none" stroke-linecap="round" opacity="1" stroke-linejoin="round"/>
<path stroke="#c2f3ee" stroke-width="0.59" d="M932.226+344.861C933.411+343.281+935.161+344.231+935.521+345.076C936.07+346.363+932.118+349.429+932.226+349.791C932.387+350.333+935.574+350.032+935.574+350.032" fill="none" stroke-linecap="round" opacity="1" stroke-linejoin="round"/>
<path stroke="#f599ed" stroke-width="0.59" d="M945.015+357.968C946.304+356.249+948.207+357.282+948.599+358.201C949.196+359.6+944.899+362.935+945.015+363.328C945.191+363.918+948.656+363.59+948.656+363.59" fill="none" stroke-linecap="round" opacity="1" stroke-linejoin="round"/>
<path stroke="#c2f3ee" stroke-width="0.59" d="M927.949+347.277C927.949+347.277+930.177+344.007+930.18+344.011C930.311+344.207+930.159+350.368+930.225+350.368" fill="none" stroke-linecap="round" opacity="1" stroke-linejoin="round"/>
</g>
</g>
</g>
<use stroke-linecap="round" stroke="#c2f3ee" xlink:href="#Mask" stroke-width="0.59" fill="none" stroke-linejoin="round"/>
</g>
</g>
</svg>
