<?xml version="1.0" encoding="UTF-8" standalone="no"?>
<!DOCTYPE svg PUBLIC "-//W3C//DTD SVG 1.1//EN" "http://www.w3.org/Graphics/SVG/1.1/DTD/svg11.dtd">
<svg width="100%" height="100%" viewBox="0 0 2750 2750" version="1.1" xmlns="http://www.w3.org/2000/svg" xmlns:xlink="http://www.w3.org/1999/xlink" xml:space="preserve" xmlns:serif="http://www.serif.com/" style="fill-rule:evenodd;clip-rule:evenodd;stroke-linejoin:round;stroke-miterlimit:2;">
    <g id="Publicdomainvectors.org">
        <rect x="-2.047" y="1.424" width="2749.43" height="2749.43" style="fill:#103e4d;"/>
        <g>
            <path d="M2749.43,2313.24l0,436.758l-2749.43,0l0,-1351.59c235.8,-75.191 486.979,-115.916 747.713,-115.916c825.412,-0 1555.78,406.771 2001.72,1030.75" style="fill:#154859;"/>
            <path d="M2749.43,2728.94l0,21.063l-2749.43,-0l0,-1123.66c233.887,-82.683 485.504,-127.837 747.713,-127.837c874.374,-0 1631.8,500.421 2001.72,1230.44" style="fill:#19586c;"/>
            <g>
                <path d="M747.712,1739.53c744.867,0 1394.65,406.879 1739.38,1010.48l-2487.09,0l0,-866.017c231.029,-93.1 483.354,-144.458 747.712,-144.458" style="fill:#29a3ca;"/>
                <path d="M1985.28,2750l-1985.28,0l0,-774.579c186.279,-78.058 394.783,-121.804 614.933,-121.804c647.446,-0 1194.29,377.987 1370.35,896.383" style="fill:#1e8eb3;"/>
                <path d="M0,2301.71l0,-183.995c112.154,-59.4 329.504,-99.667 579.275,-99.667c195.637,-0 371.367,24.708 492.25,63.958c91.975,29.867 174.412,43.417 271.104,44.563c286.783,3.404 516.354,87.866 516.354,191.562c0,105.859 -239.233,191.667 -534.337,191.667c-150.213,-0 -285.938,-22.233 -383,-58.025c-103.096,-38.013 -197.45,-53.696 -307.284,-51.054c-18.162,0.433 -36.537,0.662 -55.087,0.662c-249.771,0 -467.121,-40.279 -579.275,-99.671m1256.64,448.288l-1056.58,0c-3.975,-7.621 -6.046,-15.421 -6.046,-23.367c0,-85.541 239.234,-154.883 534.338,-154.883c295.112,0 534.342,69.342 534.342,154.883c-0.001,7.946 -2.076,15.746 -6.051,23.367m1230.43,0l-758.505,0c17.817,-99.592 232.342,-178.25 494.4,-178.25c54.671,0 107.267,3.433 156.459,9.758c38.596,54.2 74.533,110.434 107.646,168.492m-1571.02,-1003.37c258.525,21.567 503.1,92.2 724.366,202.646c-86.333,14.1 -189.466,22.304 -300.283,22.304c-303.662,0 -549.825,-61.541 -549.825,-137.458c0,-33.237 47.192,-63.721 125.742,-87.492" style="fill:#44bfe8;"/>
                <path d="M1256.64,2750l-1056.58,-0c-3.975,-7.621 -6.046,-15.421 -6.046,-23.367c0,-85.541 239.234,-154.883 534.338,-154.883c295.112,-0 534.342,69.342 534.342,154.883c-0,7.946 -2.075,15.746 -6.051,23.367m670.359,-140.325c22.475,45.442 41.971,92.283 58.287,140.325l-256.72,-0c10.27,-57.425 85.958,-107.888 198.433,-140.325m-402.642,-469.363c105.509,76.467 198.346,165.967 275.246,265.709c-88.833,61.641 -268.171,103.779 -474.954,103.779c-150.213,-0 -285.938,-22.233 -383,-58.025c-103.096,-38.013 -197.45,-53.696 -307.283,-51.054c-18.163,0.433 -36.538,0.662 -55.088,0.662c-249.771,0 -467.121,-40.279 -579.275,-99.671l0,-183.995c112.154,-59.4 329.504,-99.667 579.275,-99.667c195.638,-0 371.367,24.708 492.25,63.958c91.975,29.867 174.413,43.417 271.104,44.563c64.075,0.766 125.284,5.579 181.725,13.741m-313.137,-172.533c-202.504,-12.171 -361.384,-52.35 -407.375,-103.233c143.612,16.65 280.483,52.025 407.375,103.233" style="fill:#33b1db;"/>
            </g>
        </g>
        <g>
            <path d="M2013.08,0.571l736.354,-0l0,784.433l-599.492,599.492c-209.979,209.979 -550.416,209.979 -760.4,-0c-209.975,-209.971 -209.975,-550.413 0,-760.392l623.538,-623.533Z" style="fill:#7d715e;"/>
            <g>
                <path d="M1769.74,1426.36c232.454,0 422.045,-189.596 422.045,-422.058c0,-232.454 -189.591,-422.05 -422.045,-422.05c-232.463,0 -422.059,189.596 -422.059,422.05c0,232.462 189.596,422.058 422.059,422.058" style="fill:#fecd03;"/>
                <path d="M2164.77,1153.15c-60.184,159.642 -214.334,273.208 -395.025,273.208c-233.1,0 -422.059,-188.962 -422.059,-422.058c0,-113.667 44.946,-216.821 118.025,-292.7c-17.454,46.292 -27.033,96.446 -27.033,148.846c-0,233.096 188.958,422.05 422.054,422.05c119.425,-0 227.258,-49.613 304.038,-129.346" style="fill:#fcdd2f;"/>
                <path d="M1738.02,675.387c41.162,0 74.537,33.375 74.537,74.538c0,41.167 -33.375,74.537 -74.537,74.537c-41.167,0 -74.542,-33.37 -74.542,-74.537c0,-41.163 33.375,-74.538 74.542,-74.538m245.875,242.005c41.166,-0 74.533,33.375 74.533,74.537c0,41.163 -33.367,74.538 -74.533,74.538c-41.167,-0 -74.538,-33.375 -74.538,-74.538c0,-41.162 33.371,-74.537 74.538,-74.537m-210.063,-0c47.05,-0 85.184,38.137 85.184,85.183c-0,47.05 -38.134,85.183 -85.184,85.183c-47.046,0 -85.183,-38.133 -85.183,-85.183c-0,-47.046 38.137,-85.183 85.183,-85.183m-232.316,176.179c25.658,-0 46.454,20.8 46.454,46.462c-0,25.663 -20.796,46.467 -46.454,46.467c-25.663,-0 -46.467,-20.804 -46.467,-46.467c-0,-25.662 20.804,-46.462 46.467,-46.462m-193.625,-76.484c-0.125,-4.25 -0.209,-8.504 -0.209,-12.787c0,-76.238 20.217,-147.75 55.579,-209.475c5.946,-0.875 12.025,-1.338 18.213,-1.338c68.429,0 123.912,55.475 123.912,123.905c0,68.433 -55.483,123.908 -123.912,123.908c-27.55,-0 -53.004,-9 -73.583,-24.213m340.562,401.417c-93.708,-18.279 -176.333,-67.562 -236.742,-136.746c22.288,-11.487 47.571,-17.97 74.371,-17.97c87.15,-0 158.275,68.579 162.371,154.716m427.9,-173.379c-65.721,94.408 -169.012,160.688 -288.217,177.183c-9.995,-21.671 -15.579,-45.808 -15.579,-71.25c0,-94.091 76.275,-170.366 170.363,-170.366c54.058,-0 102.221,25.175 133.433,64.433m-128.837,-602.404c71.808,43.35 129.641,107.479 165.2,184.062c-21.117,16.725 -47.821,26.721 -76.863,26.721c-68.429,0 -123.904,-55.475 -123.904,-123.904c-0,-33.846 13.583,-64.517 35.567,-86.879" style="fill:#f6a51b;"/>
                <path d="M2391.44,845.762c10.691,0 19.362,8.671 19.362,19.363c0,10.692 -8.671,19.358 -19.362,19.358c-10.692,0 -19.359,-8.666 -19.359,-19.358c0,-10.692 8.667,-19.363 19.359,-19.363m-185.855,-704.712c10.684,-0 19.35,8.671 19.35,19.362c0,10.688 -8.666,19.359 -19.35,19.359c-10.699,-0 -19.362,-8.671 -19.362,-19.359c0,-10.691 8.663,-19.362 19.362,-19.362m309.384,127.783c41.487,0 75.121,33.634 75.121,75.121c-0,41.492 -33.634,75.129 -75.121,75.129c-41.492,0 -75.125,-33.637 -75.125,-75.129c-0,-41.487 33.633,-75.121 75.125,-75.121m-727.571,114.221c17.108,0 30.975,13.871 30.975,30.979c-0,17.109 -13.867,30.975 -30.975,30.975c-17.104,0 -30.975,-13.866 -30.975,-30.975c-0,-17.108 13.871,-30.979 30.975,-30.979m859.596,222.642c17.112,-0 30.975,13.871 30.975,30.979c-0,17.108 -13.863,30.975 -30.975,30.975c-17.104,-0 -30.975,-13.867 -30.975,-30.975c-0,-17.108 13.871,-30.979 30.975,-30.979m-504.334,-298.146c37.955,-0 68.725,30.771 68.725,68.729c0,37.954 -30.77,68.725 -68.725,68.725c-37.954,0 -68.729,-30.771 -68.729,-68.725c0,-37.958 30.775,-68.729 68.729,-68.729m153.913,269.104c10.696,0 19.358,8.671 19.358,19.363c0,10.691 -8.662,19.358 -19.358,19.358c-10.696,0 -19.358,-8.667 -19.358,-19.358c-0,-10.692 8.662,-19.363 19.358,-19.363" style="fill:#c4a874;"/>
                <path d="M1575.6,1171.6c-8.492,9.158 -20.625,14.896 -34.087,14.896c-25.663,-0 -46.467,-20.804 -46.467,-46.467c-0,-15.666 7.758,-29.529 19.642,-37.941c17.729,25.346 38.175,48.658 60.912,69.512m-227.712,-154.516c-0.125,-4.25 -0.209,-8.505 -0.209,-12.788c0,-76.237 20.217,-147.75 55.579,-209.475c5.946,-0.875 12.025,-1.337 18.213,-1.337c7.571,-0 14.983,0.683 22.183,1.983c-3.275,21.179 -4.983,42.875 -4.983,64.975c-0,60.171 12.625,117.396 35.321,169.196c-15.946,7.471 -33.746,11.658 -52.521,11.658c-27.55,0 -53.004,-9 -73.583,-24.212m340.562,401.416c-93.708,-18.279 -176.333,-67.562 -236.742,-136.746c22.288,-11.487 47.571,-17.97 74.371,-17.97c87.15,-0 158.275,68.579 162.371,154.716m427.9,-173.379c-65.721,94.408 -169.012,160.688 -288.217,177.183c-9.995,-21.67 -15.579,-45.808 -15.579,-71.25c0,-24.891 5.346,-48.541 14.938,-69.858c10.962,0.854 22.05,1.296 33.233,1.296c83.438,-0 161.213,-24.217 226.688,-65.996c10.75,8.358 20.466,17.971 28.937,28.625" style="fill:#fdba11;"/>
                <g id="Ebene1">
                </g>
            </g>
        </g>
        <path d="M679.242,582.25c16.7,0 30.237,13.538 30.237,30.233c0,16.696 -13.537,30.234 -30.237,30.234c-16.696,-0 -30.234,-13.538 -30.234,-30.234c0,-16.695 13.538,-30.233 30.234,-30.233m47.662,380.354c9.617,0 17.421,7.804 17.421,17.429c0,9.625 -7.804,17.425 -17.421,17.425c-9.629,0 -17.425,-7.8 -17.425,-17.425c0,-9.625 7.796,-17.429 17.425,-17.429m-470.908,-585.358c9.625,-0 17.425,7.796 17.425,17.421c-0,9.625 -7.8,17.425 -17.425,17.425c-9.625,-0 -17.425,-7.8 -17.425,-17.425c-0,-9.625 7.8,-17.421 17.425,-17.421m690.671,-96.804c25.391,-0 45.975,20.583 45.975,45.971c-0,25.391 -20.584,45.979 -45.975,45.979c-25.392,-0 -45.975,-20.588 -45.975,-45.979c-0,-25.388 20.583,-45.971 45.975,-45.971m332.596,-96.8c19.737,-0 35.733,16 35.733,35.729c-0,19.737 -15.996,35.733 -35.733,35.733c-19.734,0 -35.725,-15.996 -35.725,-35.733c-0,-19.729 15.991,-35.729 35.725,-35.729m1129.59,1535.27c9.625,0 17.429,7.804 17.429,17.429c0,9.621 -7.804,17.417 -17.429,17.417c-9.625,0 -17.425,-7.796 -17.425,-17.417c0,-9.625 7.8,-17.429 17.425,-17.429m91,-343.625c9.621,0 17.421,7.8 17.421,17.421c0,9.633 -7.8,17.433 -17.421,17.433c-9.633,0 -17.429,-7.8 -17.429,-17.433c0,-9.621 7.796,-17.421 17.429,-17.421m-205.225,166.7c9.625,0 17.425,7.796 17.425,17.425c0,9.621 -7.8,17.417 -17.425,17.417c-9.625,-0 -17.429,-7.796 -17.429,-17.417c0,-9.629 7.804,-17.425 17.429,-17.425m263.896,27.85c17.429,0 31.567,14.142 31.567,31.575c-0,17.429 -14.138,31.571 -31.567,31.571c-17.438,0 -31.571,-14.142 -31.571,-31.571c0,-17.433 14.133,-31.575 31.571,-31.575m-1583.31,-904.121c-9.625,0 -17.425,7.805 -17.425,17.43c-0,9.621 7.8,17.42 17.425,17.42c9.62,0 17.425,-7.799 17.425,-17.42c-0,-9.625 -7.805,-17.43 -17.425,-17.43m-357.184,-553.699c9.625,-0 17.425,7.799 17.425,17.42c0,9.629 -7.8,17.429 -17.425,17.429c-9.621,0 -17.425,-7.8 -17.425,-17.429c0,-9.621 7.804,-17.421 17.425,-17.421m-390.108,472.388c4.808,-0 8.708,3.9 8.708,8.717c0,4.808 -3.9,8.708 -8.708,8.708c-4.813,0 -8.713,-3.9 -8.713,-8.708c0,-4.817 3.9,-8.717 8.713,-8.717m-34.621,468.521c16.696,-0 30.233,13.537 30.233,30.233c0,16.7 -13.537,30.238 -30.233,30.238c-16.7,-0 -30.237,-13.538 -30.237,-30.238c-0,-16.696 13.537,-30.233 30.237,-30.233m1419.85,-923.488c9.625,0 17.425,7.804 17.425,17.429c-0,9.625 -7.8,17.425 -17.425,17.425c-9.621,0 -17.421,-7.8 -17.421,-17.425c0,-9.625 7.8,-17.429 17.421,-17.429m-587.475,978.467c20.375,-0 36.896,16.512 36.896,36.887c-0,20.371 -16.521,36.884 -36.896,36.884c-20.367,-0 -36.879,-16.513 -36.879,-36.884c-0,-20.375 16.512,-36.887 36.879,-36.887m-630.288,-235.038c9.63,0 17.425,7.805 17.425,17.426c0,9.625 -7.795,17.429 -17.425,17.429c-9.625,-0 -17.42,-7.804 -17.42,-17.429c-0,-9.621 7.795,-17.426 17.42,-17.426" style="fill:#d4e7ec;"/>
    </g>
    <g id="Ebene2">
        <g transform="matrix(0.551066,0,0,0.958768,-58.0593,989.544)">
            <text x="823.696px" y="1342.43px" style="font-family:'FFFTusj-Bold', 'FFF Tusj', serif;font-weight:700;font-size:365.332px;fill:#d4e7ec;">h</text>
            <text x="1060.62px" y="1342.43px" style="font-family:'FFFTusj-Bold', 'FFF Tusj', serif;font-weight:700;font-size:365.332px;fill:#d4e7ec;">eut<tspan x="1667.3px 1876.19px " y="1342.43px 1342.43px ">e </tspan>wird ein</text>
            <text x="186.519px" y="1707.76px" style="font-family:'FFFTusj-Bold', 'FFF Tusj', serif;font-weight:700;font-size:365.332px;fill:#d4e7ec;">ein<tspan x="745.576px 928.242px " y="1707.76px 1707.76px ">sc</tspan>hlag<tspan x="1857.98px 2059.38px 2302.87px 2531.21px 2732.42px 2915.09px " y="1707.76px 1707.76px 1707.76px 1707.76px 1707.76px 1707.76px ">ender </tspan>Erfolg</text>
        </g>
        <g transform="matrix(0.551066,0,0,0.958768,-58.0593,989.544)">
            <text x="823.696px" y="1342.43px" style="font-family:'FFFTusj-Bold', 'FFF Tusj', serif;font-weight:700;font-size:365.332px;fill:#d4e7ec;">h</text>
            <text x="1060.62px" y="1342.43px" style="font-family:'FFFTusj-Bold', 'FFF Tusj', serif;font-weight:700;font-size:365.332px;fill:#d4e7ec;">eut<tspan x="1667.3px 1876.19px " y="1342.43px 1342.43px ">e </tspan>wird ein</text>
            <text x="186.519px" y="1707.76px" style="font-family:'FFFTusj-Bold', 'FFF Tusj', serif;font-weight:700;font-size:365.332px;fill:#d4e7ec;">ein<tspan x="745.576px 928.242px " y="1707.76px 1707.76px ">sc</tspan>hlag<tspan x="1857.98px 2059.38px 2302.87px 2531.21px 2732.42px 2915.09px " y="1707.76px 1707.76px 1707.76px 1707.76px 1707.76px 1707.76px ">ender </tspan>Erfolg</text>
        </g>
        <g>
            <path d="M796.474,570.674c-36.784,-101.812 56.275,-228.881 207.682,-283.582c151.406,-54.702 304.192,-16.454 340.976,85.358c21.738,60.167 -1.526,132.319 -62.331,193.318l80.003,113.122l-156.55,-54.837c-21.671,12.557 -44.803,23.308 -68.804,31.98c-151.406,54.701 -304.193,16.453 -340.976,-85.359Z" style="fill:#ebebeb;fill-opacity:0.69;"/>
            <path d="M962.965,486.289c-0.767,-0.99 -1.523,-1.987 -2.268,-2.993c-0.596,-0.804 -9.521,-15.752 -10.117,-18.421c-0.866,-3.886 1.247,-5.98 2.461,-6.878c1.3,-0.962 3.038,-1.654 5.391,-1.093c3.279,0.78 6.551,3.342 9.158,7.295c3.072,4.659 5.45,11.447 6.909,16.072c7.263,9.24 15.266,17.964 22.798,26.954c12.335,14.725 26.57,31.541 37.244,49.825c11.179,19.15 18.425,39.904 16.313,61.555c-1.579,16.201 -9.576,27.416 -20.1,32.334c-10.606,4.956 -24.228,3.8 -37.558,-6.209c-19.305,-14.497 -28.848,-37.985 -27.27,-61.733c0.234,-3.524 3.286,-6.195 6.81,-5.961c3.525,0.234 6.196,3.285 5.962,6.81c-1.293,19.457 6.368,38.771 22.184,50.648c8.729,6.555 17.508,8.094 24.454,4.848c7.028,-3.284 11.724,-11.16 12.779,-21.98c1.85,-18.975 -4.83,-37.075 -14.628,-53.859c-10.304,-17.649 -24.096,-33.845 -36.002,-48.058c-2.641,-3.153 -5.338,-6.275 -8.04,-9.395c0.703,9.995 0.125,20.723 -2.804,29.66c-4.172,12.732 -12.739,22.083 -27.721,23.053c-8.515,0.551 -16.483,-2.272 -23.477,-7.107c-9.595,-6.632 -17.316,-17.12 -21.958,-26.638c-0.8,-1.641 -4.568,-9.213 -5.735,-14.674c-1.021,-4.782 0.171,-8.614 2.065,-10.546c2.473,-2.522 6.528,-2.562 9.05,-0.089c1.973,1.934 2.427,4.836 1.349,7.215c0.652,1.765 4.144,11.187 4.776,12.484c3.164,6.488 8.025,13.57 14.107,18.886c5.441,4.755 11.871,8.157 18.996,7.695c9.027,-0.584 13.871,-6.593 16.385,-14.265c4.614,-14.081 2.132,-33.379 -1.171,-44.292l-0.342,-1.143Z" style="fill:#103e4d;"/>
            <path d="M990.649,464.4c-3.302,-4.993 -6.077,-9.969 -8.085,-14.458c-3.059,-6.837 -4.264,-12.797 -3.734,-16.523c0.586,-4.112 3.201,-5.315 4.965,-5.781c1.513,-0.4 4.782,-0.576 7.479,2.83c2.669,3.37 8.617,17.524 8.999,19.146c0.635,2.688 1.477,6.02 2.33,9.701c5.556,8.088 12.573,16.029 19.742,21.194c5.171,3.724 10.237,6.272 14.77,4.689c2.845,-0.994 5.114,-3.685 7.121,-8.026c1.482,-3.207 5.288,-4.606 8.494,-3.124c3.207,1.482 4.606,5.288 3.124,8.495c-3.87,8.371 -9.033,12.823 -14.518,14.739c-7.967,2.782 -17.385,0.158 -26.472,-6.387c-2.888,-2.081 -5.759,-4.551 -8.544,-7.281c0.155,6.025 -0.558,11.553 -2.462,15.785c-1.45,3.222 -5.242,4.66 -8.463,3.211c-3.221,-1.45 -4.66,-5.242 -3.21,-8.463c1.688,-3.751 1.615,-9.014 1.067,-14.545c-0.503,-5.085 -1.521,-10.374 -2.603,-15.202Z" style="fill:#103e4d;"/>
            <path d="M982.191,404.094c1.131,1.527 1.572,3.541 1.026,5.513c-0.941,3.404 -4.47,5.403 -7.874,4.461c-1.579,-0.436 -3.102,-1.389 -4.261,-3.189c-0.761,-1.183 -1.51,-3.272 -1.728,-6.118c-0.672,-8.778 2.769,-29.568 3.367,-32.144c0.798,-3.441 4.24,-5.587 7.68,-4.789c3.441,0.799 5.587,4.24 4.789,7.681c-0.423,1.822 -2.449,13.791 -3.002,22.646c-0.135,2.166 -0.048,4.78 0.003,5.939Z" style="fill:#103e4d;"/>
            <path d="M1040.65,457.774c-16.018,-23.503 -34.148,-47.654 -45.116,-74.04c-3.195,-7.687 -6.954,-20.21 -6.171,-31.008c0.628,-8.67 4.046,-16.268 11.563,-20.791c6.338,-3.815 12.678,-2.755 18.363,1.031c6.214,4.138 11.514,12.052 14.163,16.883c6.302,11.492 10.805,24.124 14.016,37.099c3.672,-4.519 8.274,-8.142 13.897,-10.501c9.602,-4.027 19.27,-0.316 28.177,8.633c8.231,8.272 16.028,21.162 22.954,33.324c6.309,11.078 11.774,21.521 16.351,26.234c2.393,2.465 4.507,4.156 6.434,5.117c1.211,0.605 2.162,0.987 2.952,0.529c1.228,-0.712 1.894,-2.249 2.501,-3.95c1.453,-4.067 1.766,-9.318 1.148,-13.962c-0.467,-3.501 1.997,-6.723 5.498,-7.189c3.502,-0.467 6.723,1.997 7.19,5.498c0.885,6.643 0.296,14.141 -1.782,19.959c-1.748,4.893 -4.599,8.666 -8.132,10.716c-5.622,3.262 -14.287,3.223 -24.992,-7.801c-8.36,-8.609 -19.955,-34.879 -33.132,-52.338c-3.787,-5.018 -7.66,-9.262 -11.723,-11.73c-2.774,-1.686 -5.595,-2.452 -8.493,-1.236c-7.702,3.231 -12.29,10.162 -14.935,18.265c0.866,5.524 1.548,11.041 2.085,16.489c0.805,8.171 1.222,16.532 0.893,24.744c-0.071,1.77 -0.17,3.58 -0.388,5.372l0,0.09c-0.005,0.189 -0.046,0.491 -0.111,0.853c3.687,4.576 9.311,10.876 12.815,16.658c2.582,4.259 4.051,8.408 4.052,11.783c0.002,3.337 -1.791,5.021 -3.928,5.919c-0.678,0.285 -3.565,1.488 -6.692,-1.033c-1.376,-1.109 -8.282,-8.593 -8.9,-9.481c-4.339,-6.244 -7.929,-12.995 -10.557,-20.136Zm-2.368,-52.116c-2.899,-17.28 -7.763,-34.537 -16.053,-49.655c-1.643,-2.996 -4.553,-7.669 -8.167,-10.916c-2.002,-1.798 -4.157,-3.617 -6.536,-2.185c-3.801,2.287 -5.079,6.366 -5.397,10.75c-0.636,8.779 2.627,18.919 5.225,25.169c7.16,17.226 17.519,33.439 28.267,49.147c-0.058,-7.52 0.738,-15.218 2.661,-22.31Z" style="fill:#103e4d;"/>
            <path d="M1158.15,340.129c-0.787,-0.98 -1.578,-1.937 -2.37,-2.872c-4.233,-4.998 0.973,-9.268 1.1,-9.361c0.289,-0.208 4.447,-3.116 8.251,0.633c0.072,0.07 0.566,0.604 0.755,0.81c2.298,2.504 4.468,5.139 6.562,7.814c4.347,5.553 8.282,11.376 12.196,17.236c6.379,9.551 15.052,23.564 25.671,33.535c6.18,5.803 12.97,10.292 20.498,10.814c2.915,0.202 5.168,-0.236 6.79,-1.522c1.672,-1.326 2.595,-3.39 3.215,-5.786c1.164,-4.502 1.1,-10.057 0.45,-15.887c-1.776,-15.932 -8.146,-33.756 -11.092,-40.257c-1.458,-3.217 -0.03,-7.013 3.187,-8.471c3.217,-1.458 7.013,-0.03 8.471,3.188c3.904,8.614 13.17,35.257 12.664,54.667c-0.245,9.414 -2.891,17.252 -8.147,21.909c-3.854,3.415 -9.153,5.433 -16.424,4.928c-10.314,-0.715 -19.907,-6.302 -28.374,-14.252c-1.66,-1.559 -3.279,-3.209 -4.851,-4.922c0.663,4.732 0.894,9.464 0.612,14.138c-1.679,27.846 -26.177,47.915 -51.569,34.476c-14.319,-7.579 -31.84,-28.378 -39.311,-49.816c-5.34,-15.324 -5.476,-30.862 2.709,-42.592c10.806,-15.487 33.493,-15.63 49.007,-8.41Zm7.758,22.53c-2.935,-4.448 -7.526,-8.096 -12.222,-10.472c-5.516,-2.791 -12.502,-4.422 -19.101,-3.923c-5.85,0.443 -11.443,2.581 -14.945,7.6c-5.96,8.541 -5.007,19.897 -1.119,31.055c6.37,18.279 21.003,36.253 33.211,42.715c16.622,8.797 31.706,-5.705 32.805,-23.934c0.757,-12.537 -2.806,-25.48 -8.534,-37.561c-0.728,0.41 -1.562,0.671 -2.476,0.805c-3.495,0.512 -6.748,-1.91 -7.26,-5.405l-0.022,-0.186l-0.337,-0.694Zm3.959,-5.882c-1.145,0.49 -2.063,1.295 -2.704,2.462c0.647,-1.042 1.588,-1.894 2.727,-2.425l-0.023,-0.037Z" style="fill:#103e4d;"/>
        </g>
    </g>
</svg>
