<?xml version="1.0" encoding="UTF-8" standalone="no"?>
<!DOCTYPE svg PUBLIC "-//W3C//DTD SVG 1.1//EN" "http://www.w3.org/Graphics/SVG/1.1/DTD/svg11.dtd">
<svg width="100%" height="100%" viewBox="0 0 1080 1920" version="1.1" xmlns="http://www.w3.org/2000/svg" xmlns:xlink="http://www.w3.org/1999/xlink" xml:space="preserve" xmlns:serif="http://www.serif.com/" style="fill-rule:evenodd;clip-rule:evenodd;stroke-linejoin:round;stroke-miterlimit:2;">
    <rect x="-440.507" y="-256.794" width="2157.26" height="1375.53" style="fill:url(#_Linear1);"/>
    <g>
        <circle cx="534.883" cy="702.227" r="567.213" style="fill:#453d70;"/>
        <circle cx="534.883" cy="830.46" r="438.98" style="fill:#534893;"/>
        <ellipse cx="534.883" cy="966.835" rx="297.31" ry="302.604" style="fill:#7b71b9;"/>
    </g>
    <path d="M569.644,958.663c169.611,-0.075 395.434,-174.391 518.321,-100.221c160.608,96.936 -11.118,1066.21 -11.118,1066.21l-1075.55,-4.243c-0,-0 -89.178,-795.147 -41.913,-1009c29.554,-133.719 449.08,47.328 610.263,47.257Z" style="fill:#a871b9;"/>
    <path d="M907.893,1113.88c169.611,-0.075 395.434,-174.391 518.321,-100.222c160.608,96.937 -11.118,1066.21 -11.118,1066.21l-1075.55,-4.242c-0,-0 -89.178,-795.147 -41.913,-1009c29.554,-133.719 449.08,47.328 610.263,47.257Z" style="fill:#b971a4;"/>
    <path d="M-60.364,1138.67c169.611,-0.075 395.434,-174.391 518.321,-100.221c160.608,96.937 -11.118,1066.21 -11.118,1066.21l-1075.55,-4.243c-0,0 -89.178,-795.146 -41.913,-1009c29.554,-133.719 449.08,47.327 610.263,47.256Z" style="fill:#b971a4;"/>
    <path d="M713.261,1278.34c169.611,-0.075 395.434,-174.391 518.321,-100.221c160.608,96.936 -11.118,1066.21 -11.118,1066.21l-1075.55,-4.242c-0,-0 -89.178,-795.147 -41.913,-1009c29.554,-133.719 449.08,47.328 610.263,47.257Z" style="fill:#b97179;"/>
    <path d="M-284.787,1308.47c169.611,-0.075 395.434,-174.391 518.321,-100.221c160.607,96.937 -11.119,1066.21 -11.119,1066.21l-1075.55,-4.243c0,0 -89.177,-795.146 -41.912,-1009c29.553,-133.719 449.08,47.327 610.263,47.256Z" style="fill:#b97179;"/>
    <path d="M84.461,1431.16c169.611,-0.075 395.434,-174.391 518.321,-100.221c160.607,96.936 -11.119,1066.21 -11.119,1066.21l-1075.55,-4.243c0,-0 -89.177,-795.147 -41.912,-1009c29.553,-133.719 449.08,47.328 610.263,47.257Z" style="fill:#b98b71;"/>
    <path d="M1047.71,1405.35c169.611,-0.074 395.434,-174.39 518.321,-100.221c160.608,96.937 -11.118,1066.21 -11.118,1066.21l-1075.55,-4.242c-0,-0 -89.178,-795.147 -41.913,-1009c29.554,-133.719 449.08,47.328 610.263,47.256Z" style="fill:#b98b71;"/>
    <path d="M741.756,1567.68c169.611,-0.075 395.434,-174.391 518.321,-100.221c160.607,96.937 -11.119,1066.21 -11.119,1066.21l-1075.55,-4.243c0,0 -89.177,-795.146 -41.912,-1009c29.553,-133.719 449.08,47.327 610.263,47.256Z" style="fill:#b9ac71;"/>
    <path d="M-236.069,1590.99c169.611,-0.075 395.434,-174.39 518.321,-100.221c160.607,96.937 -11.119,1066.21 -11.119,1066.21l-1075.55,-4.243c0,0 -89.177,-795.146 -41.912,-1009c29.553,-133.719 449.08,47.327 610.263,47.256Z" style="fill:#b9ac71;"/>
    <path d="M544.327,1731.55c206.679,-137.094 379.214,63.135 635.96,-9.855c180.444,-51.299 25.4,225.017 25.4,225.017l-1328.73,-7.794c0,-0 -148.358,117.633 -101.094,-96.222c29.554,-133.719 634.143,-22.049 768.463,-111.146Z" style="fill:#85b971;"/>
    <defs>
        <linearGradient id="_Linear1" x1="0" y1="0" x2="1" y2="0" gradientUnits="userSpaceOnUse" gradientTransform="matrix(1558.79,744.284,-744.284,1558.79,-172.958,-13.1194)"><stop offset="0" style="stop-color:#feb681;stop-opacity:1"/><stop offset="1" style="stop-color:#ff6c00;stop-opacity:1"/></linearGradient>
    </defs>
</svg>
